<?xml version="1.0" standalone="no"?>
<!DOCTYPE svg PUBLIC "-//W3C//DTD SVG 20010904//EN"
 "http://www.w3.org/TR/2001/REC-SVG-20010904/DTD/svg10.dtd">
<svg version="1.0" xmlns="http://www.w3.org/2000/svg"
 width="256.000000pt" height="256.000000pt" viewBox="0 0 256.000000 256.000000"
 preserveAspectRatio="xMidYMid meet">
<metadata>
Created by potrace 1.14, written by Peter Selinger 2001-2017
</metadata>
<g transform="translate(0.000000,256.000000) scale(0.100000,-0.100000)"
fill="#000000" stroke="none">
<path d="M74 2365 c-72 -43 -72 -45 -71 -500 0 -220 4 -414 9 -432 5 -19 25
-45 50 -65 l42 -33 506 0 505 0 39 24 c71 45 72 46 71 507 -1 467 -1 466 -79
504 -37 17 -62 20 -194 20 -151 0 -152 0 -168 -25 -14 -21 -24 -25 -69 -25
-44 0 -54 3 -58 20 -3 10 -17 22 -33 26 -22 6 -31 2 -49 -19 -26 -33 -91 -39
-102 -9 -4 9 -11 20 -17 24 -6 4 -85 8 -176 8 -158 0 -167 -1 -206 -25z"/>
<path d="M1415 2376 c-38 -17 -64 -46 -78 -88 -9 -24 -12 -157 -11 -440 l1
-407 23 -35 c51 -74 26 -71 590 -71 l505 0 37 25 c68 45 68 51 68 511 -1 452
1 439 -65 491 l-29 23 -506 2 c-405 2 -511 0 -535 -11z"/>
<path d="M101 1223 c-38 -13 -76 -50 -90 -86 -5 -12 -9 -207 -9 -432 0 -388 1
-412 20 -445 11 -19 31 -44 46 -55 26 -19 45 -20 534 -23 460 -2 511 -1 540
14 37 19 58 44 74 89 7 19 10 171 10 435 l-1 405 -24 38 c-45 73 -28 71 -576
71 -353 1 -499 -2 -524 -11z"/>
<path d="M1434 1225 c-45 -13 -88 -54 -100 -96 -5 -20 -9 -205 -8 -435 1 -376
2 -404 20 -434 40 -69 57 -75 239 -78 l164 -3 16 25 c15 23 24 26 71 26 41 0
54 -4 54 -15 0 -38 83 -43 93 -5 7 29 83 29 92 0 9 -29 35 -32 217 -28 150 3
166 5 194 25 64 46 64 48 64 505 0 392 -1 415 -20 445 -19 32 -60 64 -89 71
-39 9 -975 6 -1007 -3z"/>
</g>
</svg>
