<svg xmlns:xlink="http://www.w3.org/1999/xlink" xmlns="http://www.w3.org/2000/svg" viewBox="0 0 560 308" style="width: 100%; height: 100%;transition: 0.3s;border-radius: 5px;background:transparent; position: absolute; top: 50%;font-size:48px; left: 50%; transform: translate(-50%, -50%) scale(0.7); z-index: 0; cursor: pointer;" width="560"  height="308" >
										<style>
											.mytextnew167571812955378121{
												text-align:center;
												}
											.mytextnew2167571812955378121{
												text-align:center;
																								}
										</style>
																				<g id="SvgjsG1452" featurekey="nameFeature-0" fill="#000" transform="translate(71.375,114) scale(0.15625)">
											<path d="m236 182v-152c0-11.046875-8.953125-20-20-20h-186c-11.046875 0-20 8.953125-20 20v152c0 11.046875 8.953125 20 20 20h186c11.046875 0 20-8.953125 20-20zm0 0" fill="#FF5D5D"></path><path d="m236 414v-152c0-11.046875-8.953125-20-20-20h-186c-11.046875 0-20 8.953125-20 20v152c0 11.046875 8.953125 20 20 20h186c11.046875 0 20-8.953125 20-20zm0 0" fill="#FE8F8D"></path><path d="m501.96875 182v-152c0-11.046875-8.953125-20-20-20h-186c-11.046875 0-20 8.953125-20 20v152c0 11.046875 8.953125 20 20 20h186c11.046875 0 20-8.953125 20-20zm0 0" fill="#FE8F8D"></path><path d="m501.96875 414v-152c0-11.046875-8.953125-20-20-20h-186c-11.046875 0-20 8.953125-20 20v152c0 11.046875 8.953125 20 20 20h186c11.046875 0 20-8.953125 20-20zm0 0" fill="#FF5D5D"></path><path d="m216 212h-186c-16.542969 0-30-13.457031-30-30v-152c0-16.542969 13.457031-30 30-30h55.667969c5.523437 0 10 4.476562 10 10s-4.476563 10-10 10h-55.667969c-5.515625 0-10 4.484375-10 10v152c0 5.515625 4.484375 10 10 10h186c5.515625 0 10-4.484375 10-10v-152c0-5.515625-4.484375-10-10-10h-50.777344c-5.523437 0-10-4.476562-10-10s4.476563-10 10-10h50.777344c16.542969 0 30 13.457031 30 30v152c0 16.542969-13.457031 30-30 30zm0 0"></path><path d="m123 20c-2.628906 0-5.210938-1.070312-7.070312-2.929688-1.859376-1.859374-2.929688-4.441406-2.929688-7.070312s1.070312-5.210938 2.929688-7.070312c1.859374-1.859376 4.441406-2.929688 7.070312-2.929688s5.210938 1.070312 7.070312 2.929688c1.859376 1.859374 2.929688 4.441406 2.929688 7.070312s-1.070312 5.210938-2.929688 7.070312c-1.859374 1.859376-4.441406 2.929688-7.070312 2.929688zm0 0"></path><path d="m482 212h-186c-16.542969 0-30-13.457031-30-30v-152c0-16.542969 13.457031-30 30-30h186c16.542969 0 30 13.457031 30 30v152c0 16.542969-13.457031 30-30 30zm-186-192c-5.515625 0-10 4.484375-10 10v152c0 5.515625 4.484375 10 10 10h186c5.515625 0 10-4.484375 10-10v-152c0-5.515625-4.484375-10-10-10zm0 0"></path><path d="m216 444h-186c-16.542969 0-30-13.457031-30-30v-152c0-16.542969 13.457031-30 30-30h186c16.542969 0 30 13.457031 30 30v152c0 16.542969-13.457031 30-30 30zm-186-192c-5.515625 0-10 4.484375-10 10v152c0 5.515625 4.484375 10 10 10h186c5.515625 0 10-4.484375 10-10v-152c0-5.515625-4.484375-10-10-10zm0 0"></path><path d="m388.96875 444c-2.628906 0-5.207031-1.070312-7.070312-2.929688-1.859376-1.859374-2.929688-4.441406-2.929688-7.070312s1.070312-5.210938 2.929688-7.070312c1.863281-1.859376 4.441406-2.929688 7.070312-2.929688 2.632812 0 5.210938 1.070312 7.070312 2.929688 1.859376 1.859374 2.929688 4.441406 2.929688 7.070312s-1.070312 5.210938-2.929688 7.070312c-1.859374 1.859376-4.4375 2.929688-7.070312 2.929688zm0 0"></path><path d="m482 444h-56.332031c-5.523438 0-10-4.476562-10-10s4.476562-10 10-10h56.332031c5.515625 0 10-4.484375 10-10v-152c0-5.515625-4.484375-10-10-10h-186c-5.515625 0-10 4.484375-10 10v152c0 5.515625 4.484375 10 10 10h50.332031c5.523438 0 10 4.476562 10 10s-4.476562 10-10 10h-50.332031c-16.542969 0-30-13.457031-30-30v-152c0-16.542969 13.457031-30 30-30h186c16.542969 0 30 13.457031 30 30v152c0 16.542969-13.457031 30-30 30zm0 0"></path><path d="m159.9375 115.664062-51.488281 33c-7.640625 4.898438-17.671875-.585937-17.671875-9.660156v-66.007812c0-9.074219 10.03125-14.558594 17.671875-9.664063l51.488281 33.003907c7.046875 4.515624 7.046875 14.8125 0 19.328124zm0 0" fill="#FFFFFF"></path><path d="m102.253906 160.480469c-3.539062 0-7.082031-.871094-10.304687-2.632813-6.890625-3.769531-11.171875-10.988281-11.171875-18.84375v-66.007812c0-7.855469 4.28125-15.074219 11.171875-18.84375 6.894531-3.769532 15.28125-3.476563 21.898437.761718l51.488282 33.003907c6.191406 3.96875 9.886718 10.726562 9.886718 18.082031 0 7.351562-3.695312 14.113281-9.886718 18.082031l-51.488282 33.003907c-3.527344 2.257812-7.554687 3.394531-11.59375 3.394531zm.015625-88.980469c-.207031 0-.453125.050781-.722656.199219-.769531.421875-.769531 1.078125-.769531 1.296875v66.007812c0 .214844 0 .875.769531 1.296875.769531.417969 1.320313.0625 1.503906-.054687l51.492188-33.003906c.449219-.289063.679687-.707032.679687-1.242188s-.230468-.953125-.679687-1.242188l-51.492188-33.003906c-.117187-.078125-.390625-.253906-.78125-.253906zm0 0"></path><path d="m429.4375 115.664062-51.488281 33c-7.640625 4.898438-17.671875-.585937-17.671875-9.660156v-66.007812c0-9.074219 10.03125-14.558594 17.671875-9.664063l51.488281 33.003907c7.046875 4.515624 7.046875 14.8125 0 19.328124zm0 0" fill="#FFFFFF"></path><path d="m371.753906 160.480469c-3.539062 0-7.082031-.871094-10.304687-2.632813-6.890625-3.769531-11.171875-10.988281-11.171875-18.84375v-66.007812c0-7.855469 4.28125-15.074219 11.171875-18.84375 6.894531-3.769532 15.28125-3.476563 21.898437.761718l51.488282 33.003907c6.191406 3.96875 9.886718 10.726562 9.886718 18.082031 0 7.351562-3.695312 14.113281-9.886718 18.082031l-51.488282 33.003907c-3.527344 2.257812-7.554687 3.394531-11.59375 3.394531zm.015625-88.980469c-.207031 0-.453125.050781-.722656.199219-.769531.421875-.769531 1.078125-.769531 1.296875v66.007812c0 .214844 0 .875.769531 1.296875.769531.417969 1.320313.0625 1.503906-.054687l51.492188-33.003906c.449219-.289063.679687-.707032.679687-1.242188s-.230468-.953125-.679687-1.242188l-51.492188-33.003906c-.117187-.078125-.390625-.253906-.78125-.253906zm0 0"></path><path d="m159.9375 347.664062-51.488281 33c-7.640625 4.898438-17.671875-.585937-17.671875-9.660156v-66.007812c0-9.074219 10.03125-14.558594 17.671875-9.664063l51.488281 33.003907c7.046875 4.515624 7.046875 14.8125 0 19.328124zm0 0" fill="#FFFFFF"></path><path d="m102.253906 392.480469c-3.539062 0-7.082031-.871094-10.304687-2.632813-6.890625-3.769531-11.171875-10.988281-11.171875-18.84375v-66.007812c0-7.855469 4.28125-15.074219 11.171875-18.84375 6.894531-3.769532 15.28125-3.480469 21.898437.761718l51.488282 33.003907c6.191406 3.96875 9.886718 10.726562 9.886718 18.082031 0 7.351562-3.695312 14.113281-9.886718 18.082031l-51.488282 33.003907c-3.527344 2.257812-7.554687 3.394531-11.59375 3.394531zm.015625-88.980469c-.207031 0-.453125.050781-.722656.199219-.769531.421875-.769531 1.078125-.769531 1.296875v66.007812c0 .214844 0 .875.769531 1.296875.769531.417969 1.320313.0625 1.503906-.054687l51.492188-33.003906c.449219-.289063.679687-.707032.679687-1.242188s-.230468-.953125-.679687-1.242188l-51.492188-33.003906c-.117187-.078125-.390625-.253906-.78125-.253906zm0 0"></path><path d="m429.4375 347.664062-51.488281 33c-7.640625 4.898438-17.671875-.585937-17.671875-9.660156v-66.007812c0-9.074219 10.03125-14.558594 17.671875-9.664063l51.488281 33.003907c7.046875 4.515624 7.046875 14.8125 0 19.328124zm0 0" fill="#FFFFFF"></path><path d="m371.753906 392.480469c-3.539062 0-7.082031-.871094-10.304687-2.632813-6.890625-3.769531-11.171875-10.988281-11.171875-18.84375v-66.007812c0-7.855469 4.28125-15.074219 11.171875-18.84375 6.894531-3.769532 15.28125-3.480469 21.898437.761718l51.488282 33.003907c6.191406 3.96875 9.886718 10.726562 9.886718 18.082031 0 7.351562-3.695312 14.113281-9.886718 18.082031l-51.488282 33.003907c-3.527344 2.257812-7.554687 3.394531-11.59375 3.394531zm.015625-88.980469c-.207031 0-.453125.050781-.722656.199219-.769531.421875-.769531 1.078125-.769531 1.296875v66.007812c0 .214844 0 .875.769531 1.296875.769531.417969 1.320313.0625 1.503906-.054687l51.492188-33.003906c.449219-.289063.679687-.707032.679687-1.242188s-.230468-.953125-.679687-1.242188l-51.492188-33.003906c-.117187-.078125-.390625-.253906-.78125-.253906zm0 0"></path>										</g>
																																								<g id="SvgjsG1454" featurekey="nameFeature-0">
											<text x="171.375" y="50%" dominant-baseline="middle" text-anchor="left" class="mytextnew" style="font-size:48px;fill:#000;">
												CreatorSpace											</text>	
										</g>
																														</svg>